<svg width="48" height="46" viewBox="0 0 48 46" fill="none" xmlns="http://www.w3.org/2000/svg">
<rect width="48" height="46" fill="#392D7D"/>
<path d="M31.734 24.8165C31.4145 24.5015 30.705 24.335 29.625 24.32C28.7766 24.321 27.9294 24.3831 27.09 24.506C26.676 24.2675 26.2485 24.0065 25.914 23.693C25.0125 22.8515 24.2595 21.683 23.7915 20.3975C23.8215 20.2775 23.8485 20.1725 23.8725 20.0645C23.8725 20.0645 24.381 17.18 24.246 16.205C24.236 16.1106 24.2139 16.0178 24.18 15.929L24.1365 15.815C23.9985 15.497 23.727 15.1595 23.3025 15.1775L23.046 15.17C22.572 15.17 22.1865 15.4115 22.086 15.7745C21.7785 16.91 22.0965 18.608 22.671 20.807L22.524 21.1655C22.1115 22.1705 21.5955 23.183 21.1395 24.0755L21.0795 24.191C20.5995 25.13 20.1645 25.9265 19.77 26.6015L19.3635 26.8175C19.3335 26.8325 18.636 27.203 18.4725 27.302C17.0835 28.1315 16.164 29.072 16.011 29.819C15.963 30.0575 15.999 30.362 16.245 30.503L16.6395 30.701C16.8054 30.7854 16.9888 30.8296 17.175 30.83C18.1635 30.83 19.3125 29.5985 20.895 26.837C22.7655 26.2323 24.681 25.7769 26.6235 25.475C28.0125 26.2565 29.721 26.7995 30.798 26.7995C30.99 26.7995 31.155 26.7815 31.2885 26.7455C31.486 26.6974 31.6593 26.5791 31.776 26.4125C31.9845 26.0975 32.028 25.664 31.971 25.22C31.9351 25.0639 31.8531 24.9223 31.7355 24.8135L31.734 24.8165ZM16.9605 30.08C17.1405 29.5865 17.8545 28.6115 18.9105 27.746C18.9765 27.692 19.14 27.539 19.29 27.3965C18.186 29.1575 17.4465 29.8595 16.9605 30.0785V30.08ZM23.214 15.68C23.532 15.68 23.7135 16.481 23.7285 17.2325C23.7435 17.984 23.568 18.512 23.3505 18.902C23.1705 18.3245 23.082 17.414 23.082 16.8185C23.082 16.8185 23.0685 15.68 23.214 15.68ZM21.348 25.9415C21.57 25.5455 21.7995 25.127 22.035 24.683C22.6095 23.597 22.971 22.748 23.241 22.0505C23.748 22.99 24.4232 23.8284 25.233 24.524C25.3305 24.6065 25.4355 24.6905 25.5435 24.773C23.9445 25.0895 22.563 25.4735 21.3465 25.9415H21.348ZM31.428 25.8515C31.3305 25.913 31.0515 25.9475 30.873 25.9475C30.294 25.9475 29.577 25.6835 28.5735 25.2515C28.959 25.223 29.313 25.208 29.631 25.208C30.2115 25.208 30.384 25.205 30.951 25.3505C31.518 25.496 31.5255 25.79 31.428 25.85V25.8515Z" fill="white"/>
<path d="M33.5115 16.3685C32.991 15.659 32.265 14.828 31.4685 14.0315C30.672 13.235 29.841 12.509 29.1315 11.9885C27.9225 11.102 27.336 11 27 11H15.375C14.3415 11 13.5 11.8415 13.5 12.875V33.125C13.5 34.1585 14.3415 35 15.375 35H32.625C33.6585 35 34.5 34.1585 34.5 33.125V18.5C34.5 18.164 34.398 17.5775 33.5115 16.3685ZM30.4065 15.0935C31.1265 15.8135 31.6905 16.4615 32.1075 17H28.4985V13.3925C29.037 13.8095 29.6865 14.3735 30.405 15.0935H30.4065ZM33 33.125C33 33.329 32.829 33.5 32.625 33.5H15.375C15.2759 33.4988 15.1812 33.4589 15.1111 33.3889C15.0411 33.3188 15.0012 33.2241 15 33.125V12.875C15 12.6725 15.1725 12.5 15.375 12.5H27V17.75C27 17.9489 27.079 18.1397 27.2197 18.2803C27.3603 18.421 27.5511 18.5 27.75 18.5H33V33.125Z" fill="white"/>
</svg>
