<svg width="48" height="46" viewBox="0 0 48 46" fill="none" xmlns="http://www.w3.org/2000/svg">
<rect width="48" height="46" fill="#392D7D"/>
<path d="M34.9161 13.4585H26.1706V11.2775H24.5403L12 13.4639V32.5416L24.4667 34.7225H26.1706V32.5497H34.3545C34.818 32.5279 35.3332 32.5634 35.7312 32.2799C36.0502 31.7919 35.9684 31.1812 35.9956 30.6305V14.5162C36.0529 13.8947 35.5377 13.3958 34.9161 13.4585ZM21.0945 26.7049C20.6392 26.9421 19.9576 26.694 19.4179 26.7321C19.0553 24.9274 18.6327 23.1336 18.3083 21.3207C17.9894 23.0818 17.575 24.8265 17.2097 26.5767C16.6863 26.5495 16.1602 26.5167 15.634 26.4813C15.1814 24.0823 14.6498 21.6996 14.2273 19.2952C14.6934 19.2734 15.1623 19.2543 15.6285 19.2379C15.9093 20.9745 16.2283 22.7029 16.4737 24.4422C16.858 22.6592 17.2506 20.8764 17.6323 19.0935C18.1502 19.0635 18.6682 19.0417 19.1862 19.0144C19.5487 20.8546 19.9195 22.692 20.3121 24.5239C20.6201 22.632 20.9609 20.7455 21.2908 18.8563C21.836 18.8372 22.3812 18.8072 22.9237 18.7745C22.3076 21.4161 21.7678 24.0796 21.0945 26.7049ZM34.6981 31.255H26.1706V29.5428H33.2586V28.4523H26.1706V27.0893H33.2586V25.9988H26.1706V24.6357H33.2586V23.5453H26.1706V22.1822H33.2586V21.0917H26.1706V19.7286H33.2586V18.6382H26.1706V17.2751H33.2586V16.1846H26.1706V14.7451H34.6981V31.2549V31.255Z" fill="white"/>
</svg>
